<svg width="20" height="20" viewBox="0 0 20 20" fill="none" xmlns="http://www.w3.org/2000/svg">
<path d="M10.0001 10.832C10.4603 10.832 10.8334 10.4589 10.8334 9.9987C10.8334 9.53846 10.4603 9.16536 10.0001 9.16536C9.53984 9.16536 9.16675 9.53846 9.16675 9.9987C9.16675 10.4589 9.53984 10.832 10.0001 10.832Z" stroke="#98A2B3" stroke-width="1.66667" stroke-linecap="round" stroke-linejoin="round"/>
<path d="M10.0001 4.9987C10.4603 4.9987 10.8334 4.6256 10.8334 4.16536C10.8334 3.70513 10.4603 3.33203 10.0001 3.33203C9.53984 3.33203 9.16675 3.70513 9.16675 4.16536C9.16675 4.6256 9.53984 4.9987 10.0001 4.9987Z" stroke="#98A2B3" stroke-width="1.66667" stroke-linecap="round" stroke-linejoin="round"/>
<path d="M10.0001 16.6654C10.4603 16.6654 10.8334 16.2923 10.8334 15.832C10.8334 15.3718 10.4603 14.9987 10.0001 14.9987C9.53984 14.9987 9.16675 15.3718 9.16675 15.832C9.16675 16.2923 9.53984 16.6654 10.0001 16.6654Z" stroke="#98A2B3" stroke-width="1.66667" stroke-linecap="round" stroke-linejoin="round"/>
</svg>
