<svg width="24" height="25" viewBox="0 0 24 25" fill="none" xmlns="http://www.w3.org/2000/svg">
<path d="M12.1586 11.2614C12.0586 11.2514 11.9386 11.2514 11.8286 11.2614C9.44859 11.1814 7.55859 9.23136 7.55859 6.83136C7.55859 4.38136 9.53859 2.39136 11.9986 2.39136C14.4486 2.39136 16.4386 4.38136 16.4386 6.83136C16.4286 9.23136 14.5386 11.1814 12.1586 11.2614Z" stroke="white" stroke-width="1.5" stroke-linecap="round" stroke-linejoin="round"/>
<path d="M7.15875 14.9514C4.73875 16.5714 4.73875 19.2114 7.15875 20.8214C9.90875 22.6614 14.4188 22.6614 17.1688 20.8214C19.5888 19.2014 19.5888 16.5614 17.1688 14.9514C14.4288 13.1214 9.91875 13.1214 7.15875 14.9514Z" stroke="white" stroke-width="1.5" stroke-linecap="round" stroke-linejoin="round"/>
</svg>
